<svg width="16" height="16" viewBox="0 0 16 16" fill="none" xmlns="http://www.w3.org/2000/svg">
<g clip-path="url(#clip0_742_10947)">
<path d="M6.65935 2.06258C7.93892 1.77347 9.27766 1.90574 10.4759 2.43965C10.7702 2.57078 11.115 2.43851 11.2462 2.14424C11.3773 1.84996 11.245 1.50511 10.9508 1.37399C9.5227 0.737682 7.92721 0.580047 6.40224 0.924593C4.87727 1.26914 3.50453 2.09741 2.48875 3.28587C1.47298 4.47432 0.868583 5.9593 0.765716 7.51932C0.662849 9.07933 1.06702 10.6308 1.91795 11.9424C2.76887 13.2539 4.02097 14.2553 5.48749 14.7971C6.95401 15.3389 8.55639 15.3921 10.0556 14.9488C11.5549 14.5055 12.8707 13.5895 13.8068 12.3373C14.7429 11.0851 15.2491 9.56356 15.25 8.00015V7.38682C15.25 7.06465 14.9888 6.80349 14.6667 6.80349C14.3445 6.80349 14.0833 7.06465 14.0833 7.38682V7.99982C14.0826 9.31164 13.6578 10.5881 12.8723 11.6388C12.0869 12.6894 10.9828 13.4581 9.72484 13.83C8.46686 14.202 7.12233 14.1573 5.8918 13.7027C4.66127 13.2481 3.61067 12.4079 2.89667 11.3074C2.18267 10.2069 1.84354 8.90506 1.92985 7.59608C2.01617 6.2871 2.5233 5.04109 3.37562 4.04387C4.22794 3.04666 5.37978 2.35168 6.65935 2.06258Z" fill="#33B36B"/>
<path d="M15.0794 3.07902C15.307 2.8511 15.3069 2.48175 15.0789 2.25406C14.851 2.02637 14.4817 2.02656 14.254 2.25448L7.99979 8.51492L6.41248 6.9276C6.18467 6.6998 5.81533 6.6998 5.58752 6.9276C5.35972 7.15541 5.35972 7.52475 5.58752 7.75256L7.58752 9.75256C7.69695 9.86199 7.84539 9.92345 8.00015 9.92341C8.15491 9.92338 8.30331 9.86184 8.41269 9.75235L15.0794 3.07902Z" fill="#33B36B"/>
</g>
<defs>
<clipPath id="clip0_742_10947">
<rect width="16" height="16" fill="white"/>
</clipPath>
</defs>
</svg>
