<svg width="354" height="40" viewBox="0 0 354 40" fill="none" xmlns="http://www.w3.org/2000/svg">
<rect width="58" height="40" rx="6" fill="#222934"/>
<path fill-rule="evenodd" clip-rule="evenodd" d="M20.439 25.749H17.5181L15.3278 17.3448C15.2238 16.9582 15.0031 16.6164 14.6784 16.4553C13.868 16.0505 12.9751 15.7284 12.001 15.5659V15.2423H16.7063C17.3557 15.2423 17.8428 15.7284 17.924 16.2929L19.0604 22.3551L21.9799 15.2423H24.8196L20.439 25.749ZM26.4431 25.749H23.6846L25.9561 15.2423H28.7146L26.4431 25.749ZM32.2834 18.153C32.3646 17.5871 32.8516 17.2635 33.4199 17.2635C34.3128 17.1823 35.2855 17.3448 36.0973 17.7482L36.5843 15.486C35.7726 15.1625 34.8796 15 34.0693 15C31.3919 15 29.4437 16.4553 29.4437 18.4751C29.4437 20.0117 30.8237 20.8185 31.7978 21.3046C32.8516 21.7892 33.2575 22.1128 33.1764 22.5974C33.1764 23.3244 32.3646 23.6479 31.5543 23.6479C30.5802 23.6479 29.606 23.4056 28.7145 23.0008L28.2275 25.2644C29.2016 25.6678 30.2554 25.8302 31.2296 25.8302C34.2316 25.9101 36.0973 24.4562 36.0973 22.2739C36.0973 19.5257 32.2834 19.3646 32.2834 18.153ZM45.7514 25.749L43.5611 15.2423H41.2084C40.7214 15.2423 40.2343 15.5659 40.0719 16.0505L36.016 25.749H38.8557L39.4225 24.2138H42.9117L43.2364 25.749H45.7514ZM41.6142 18.0718L42.4245 22.0316H40.153L41.6142 18.0718Z" fill="white"/>
<rect x="74" width="58" height="40" rx="6" fill="#222934"/>
<path fill-rule="evenodd" clip-rule="evenodd" d="M103.414 28.5948C101.44 30.3086 98.8783 31.3432 96.0794 31.3432C89.8342 31.3432 84.7715 26.1923 84.7715 19.8382C84.7715 13.4842 89.8342 8.33325 96.0794 8.33325C98.8783 8.33325 101.44 9.36784 103.414 11.0816C105.389 9.36784 107.95 8.33325 110.749 8.33325C116.994 8.33325 122.057 13.4842 122.057 19.8382C122.057 26.1923 116.994 31.3432 110.749 31.3432C107.95 31.3432 105.389 30.3086 103.414 28.5948Z" fill="#ED0006"/>
<path fill-rule="evenodd" clip-rule="evenodd" d="M103.415 28.5948C105.846 26.4845 107.388 23.3446 107.388 19.8382C107.388 16.3319 105.846 13.1919 103.415 11.0817C105.389 9.36786 107.951 8.33325 110.75 8.33325C116.995 8.33325 122.057 13.4842 122.057 19.8382C122.057 26.1923 116.995 31.3432 110.75 31.3432C107.951 31.3432 105.389 30.3086 103.415 28.5948Z" fill="#F9A000"/>
<path fill-rule="evenodd" clip-rule="evenodd" d="M103.414 11.0818C105.846 13.192 107.387 16.332 107.387 19.8383C107.387 23.3447 105.846 26.4847 103.414 28.5949C100.983 26.4847 99.4414 23.3447 99.4414 19.8383C99.4414 16.332 100.983 13.192 103.414 11.0818Z" fill="#FF5E00"/>
<rect x="148" width="58" height="40" rx="6" fill="#222934"/>
<path fill-rule="evenodd" clip-rule="evenodd" d="M160.925 14.0005H157.733C157.514 14.0005 157.329 14.1602 157.295 14.377L156.003 22.6104C155.978 22.7729 156.103 22.9193 156.267 22.9193H157.791C158.009 22.9193 158.195 22.7596 158.229 22.5424L158.577 20.3217C158.611 20.1043 158.797 19.9448 159.015 19.9448H160.026C162.129 19.9448 163.342 18.9213 163.659 16.8931C163.802 16.0058 163.665 15.3086 163.252 14.8202C162.799 14.2842 161.994 14.0005 160.925 14.0005ZM161.294 17.0076C161.119 18.1598 160.244 18.1598 159.397 18.1598H158.916L159.254 16.008C159.274 15.8781 159.386 15.7823 159.516 15.7823H159.737C160.314 15.7823 160.858 15.7823 161.139 16.1127C161.306 16.31 161.358 16.6029 161.294 17.0076ZM170.468 16.9707H168.939C168.809 16.9707 168.697 17.0665 168.677 17.1966L168.609 17.6266L168.502 17.4708C168.171 16.9876 167.433 16.8262 166.696 16.8262C165.007 16.8262 163.564 18.113 163.283 19.9183C163.137 20.8186 163.345 21.6796 163.853 22.2801C164.319 22.8322 164.985 23.0623 165.778 23.0623C167.139 23.0623 167.894 22.1819 167.894 22.1819L167.826 22.6093C167.8 22.7727 167.925 22.9191 168.088 22.9191H169.465C169.684 22.9191 169.869 22.7594 169.904 22.5421L170.73 17.2796C170.756 17.1178 170.632 16.9707 170.468 16.9707ZM168.337 19.9632C168.19 20.8416 167.496 21.4313 166.612 21.4313C166.169 21.4313 165.814 21.2881 165.586 21.0168C165.36 20.7473 165.274 20.3637 165.346 19.9365C165.484 19.0655 166.189 18.4568 167.059 18.4568C167.493 18.4568 167.846 18.6017 168.079 18.8754C168.311 19.152 168.404 19.5378 168.337 19.9632ZM177.074 16.9705H178.61C178.825 16.9705 178.951 17.2131 178.829 17.3906L173.719 24.8084C173.636 24.9286 173.5 25 173.354 25H171.82C171.604 25 171.478 24.7554 171.603 24.5775L173.194 22.3188L171.502 17.3244C171.443 17.1508 171.571 16.9705 171.754 16.9705H173.264C173.46 16.9705 173.633 17.1 173.69 17.2888L174.588 20.3052L176.707 17.1662C176.79 17.0437 176.927 16.9705 177.074 16.9705Z" fill="white"/>
<path fill-rule="evenodd" clip-rule="evenodd" d="M193.729 22.6103L195.039 14.2264C195.059 14.0962 195.171 14.0004 195.301 14H196.776C196.939 14 197.064 14.1469 197.039 14.3094L195.747 22.5423C195.713 22.7596 195.527 22.9193 195.308 22.9193H193.991C193.828 22.9193 193.703 22.7728 193.729 22.6103ZM183.695 14.0004H180.502C180.284 14.0004 180.098 14.1601 180.064 14.3769L178.773 22.6103C178.747 22.7728 178.872 22.9193 179.035 22.9193H180.674C180.826 22.9193 180.956 22.8076 180.98 22.6555L181.346 20.3217C181.38 20.1042 181.566 19.9447 181.784 19.9447H182.794C184.898 19.9447 186.111 18.9212 186.428 16.8931C186.572 16.0058 186.434 15.3086 186.021 14.8202C185.568 14.2842 184.763 14.0004 183.695 14.0004ZM184.063 17.0076C183.889 18.1597 183.014 18.1597 182.167 18.1597H181.686L182.024 16.0079C182.044 15.878 182.155 15.7822 182.286 15.7822H182.507C183.083 15.7822 183.628 15.7822 183.909 16.1127C184.076 16.3099 184.127 16.6028 184.063 17.0076ZM193.237 16.9706H191.709C191.578 16.9706 191.466 17.0664 191.447 17.1966L191.379 17.6265L191.272 17.4708C190.941 16.9876 190.203 16.8261 189.467 16.8261C187.777 16.8261 186.335 18.113 186.054 19.9182C185.908 20.8186 186.115 21.6796 186.623 22.2801C187.09 22.8321 187.755 23.0622 188.548 23.0622C189.91 23.0622 190.664 22.1819 190.664 22.1819L190.596 22.6092C190.571 22.7726 190.696 22.919 190.86 22.919H192.236C192.454 22.919 192.64 22.7594 192.674 22.5421L193.501 17.2796C193.526 17.1177 193.401 16.9706 193.237 16.9706ZM191.106 19.9632C190.959 20.8416 190.265 21.4312 189.381 21.4312C188.938 21.4312 188.583 21.2881 188.355 21.0167C188.129 20.7473 188.044 20.3636 188.115 19.9365C188.253 19.0655 188.957 18.4567 189.828 18.4567C190.262 18.4567 190.615 18.6016 190.848 18.8754C191.081 19.1519 191.174 19.5378 191.106 19.9632Z" fill="#179BD7"/>
<rect x="222" width="58" height="40" rx="6" fill="#222934"/>
<path fill-rule="evenodd" clip-rule="evenodd" d="M249.88 24.8558V20.4078H252.162C253.098 20.4078 253.887 20.0926 254.531 19.4709L254.685 19.3133C255.861 18.0262 255.783 16.0211 254.531 14.8303C253.904 14.1999 253.046 13.8584 252.162 13.8759H248.498V24.8558H249.88ZM249.881 19.0594V15.2244H252.198C252.696 15.2244 253.168 15.417 253.52 15.7672C254.267 16.5027 254.284 17.7285 253.563 18.4903C253.211 18.8668 252.713 19.077 252.198 19.0594H249.881ZM261.13 17.9299C260.538 17.3783 259.731 17.0981 258.71 17.0981C257.397 17.0981 256.41 17.5884 255.758 18.5603L256.976 19.3396C257.423 18.6741 258.032 18.3414 258.804 18.3414C259.293 18.3414 259.765 18.5253 260.134 18.858C260.495 19.1732 260.701 19.6285 260.701 20.1101V20.4341C260.169 20.1364 259.499 19.9788 258.675 19.9788C257.714 19.9788 256.942 20.2064 256.367 20.6705C255.792 21.1345 255.5 21.7474 255.5 22.5267C255.483 23.2359 255.784 23.9101 256.316 24.3654C256.856 24.8558 257.543 25.1009 258.349 25.1009C259.302 25.1009 260.057 24.6719 260.632 23.8138H260.692V24.8558H262.014V20.2239C262.014 19.252 261.722 18.4815 261.13 17.9299ZM257.38 23.4724C257.097 23.2622 256.926 22.9208 256.926 22.553C256.926 22.1415 257.114 21.8 257.483 21.5286C257.861 21.2572 258.333 21.1171 258.891 21.1171C259.663 21.1083 260.264 21.2834 260.693 21.6337C260.693 22.2291 260.462 22.7457 260.007 23.1834C259.595 23.6037 259.037 23.8401 258.453 23.8401C258.067 23.8489 257.689 23.7176 257.38 23.4724ZM264.981 28.1568L269.598 17.3433H268.096L265.96 22.7369H265.934L263.746 17.3433H262.244L265.273 24.3743L263.557 28.1568H264.981Z" fill="white"/>
<path d="M245.109 19.4446C245.109 19.0156 245.075 18.5865 245.006 18.1663H239.18V20.5916H242.518C242.38 21.3709 241.934 22.0714 241.282 22.5092V24.0852H243.273C244.44 22.9907 245.109 21.3709 245.109 19.4446Z" fill="#4285F4"/>
<path d="M239.18 25.6089C240.844 25.6089 242.252 25.0485 243.273 24.0853L241.282 22.5093C240.724 22.8945 240.012 23.1134 239.18 23.1134C237.567 23.1134 236.202 22.0014 235.713 20.5129H233.662V22.1415C234.709 24.2692 236.846 25.6089 239.18 25.6089Z" fill="#34A853"/>
<path d="M235.714 20.513C235.457 19.7337 235.457 18.8844 235.714 18.0964V16.4766H233.663C232.779 18.254 232.779 20.3554 233.663 22.1329L235.714 20.513Z" fill="#FBBC04"/>
<path d="M239.18 15.4958C240.064 15.4783 240.913 15.8198 241.548 16.4414L243.316 14.6377C242.192 13.5695 240.716 12.9829 239.18 13.0004C236.846 13.0004 234.709 14.3488 233.662 16.4765L235.713 18.1051C236.202 16.6078 237.567 15.4958 239.18 15.4958Z" fill="#EA4335"/>
<rect x="296" width="58" height="40" rx="6" fill="#222934"/>
<path fill-rule="evenodd" clip-rule="evenodd" d="M312.471 16.5975C313.099 16.6508 313.727 16.2778 314.12 15.8049C314.506 15.3187 314.761 14.666 314.696 14C314.14 14.0266 313.453 14.373 313.06 14.8592C312.7 15.2788 312.393 15.9581 312.471 16.5975ZM319.941 25.176V14.7926H323.768C325.744 14.7926 327.125 16.1779 327.125 18.2027C327.125 20.2274 325.718 21.6261 323.716 21.6261H321.525V25.176H319.941ZM314.689 16.7241C314.135 16.6917 313.631 16.8935 313.223 17.0565C312.96 17.1614 312.738 17.2503 312.569 17.2503C312.379 17.2503 312.148 17.1567 311.888 17.0516C311.548 16.9139 311.158 16.7565 310.75 16.764C309.815 16.7774 308.945 17.3169 308.467 18.176C307.486 19.8944 308.212 22.4386 309.161 23.8373C309.625 24.53 310.181 25.2892 310.914 25.2626C311.236 25.2502 311.468 25.15 311.708 25.0464C311.984 24.927 312.271 24.803 312.72 24.803C313.152 24.803 313.427 24.9238 313.69 25.0397C313.941 25.1499 314.181 25.2558 314.538 25.2493C315.297 25.236 315.775 24.5566 316.239 23.8639C316.74 23.1205 316.961 22.3949 316.994 22.2849L316.998 22.2721C316.997 22.2713 316.991 22.2684 316.98 22.2633C316.812 22.1852 315.532 21.5883 315.519 19.9876C315.507 18.6441 316.535 17.9634 316.697 17.8562C316.707 17.8497 316.714 17.8453 316.717 17.843C316.062 16.8573 315.042 16.7507 314.689 16.7241ZM330.017 25.2558C331.011 25.2558 331.933 24.743 332.352 23.9304H332.385V25.1759H333.85V20.0075C333.85 18.509 332.673 17.5432 330.861 17.5432C329.179 17.5432 327.936 18.5223 327.89 19.8677H329.317C329.434 19.2283 330.017 18.8087 330.815 18.8087C331.783 18.8087 332.326 19.2682 332.326 20.1141V20.6869L330.35 20.8068C328.512 20.92 327.518 21.6859 327.518 23.018C327.518 24.3634 328.545 25.2558 330.017 25.2558ZM330.441 24.0238C329.597 24.0238 329.061 23.6108 329.061 22.9781C329.061 22.3254 329.577 21.9458 330.565 21.8858L332.325 21.7726V22.3587C332.325 23.3311 331.514 24.0238 330.441 24.0238ZM338.713 25.5824C338.078 27.4006 337.352 28.0001 335.808 28.0001C335.69 28.0001 335.298 27.9868 335.206 27.9601V26.7146C335.304 26.728 335.546 26.7413 335.671 26.7413C336.371 26.7413 336.763 26.4416 337.005 25.6623L337.149 25.2028L334.467 17.6433H336.122L337.986 23.7774H338.019L339.884 17.6433H341.493L338.713 25.5824ZM321.525 16.1512H323.351C324.724 16.1512 325.509 16.8972 325.509 18.2093C325.509 19.5214 324.724 20.274 323.344 20.274H321.525V16.1512Z" fill="white"/>
</svg>
