<svg width="18" height="18" viewBox="0 0 18 18" fill="none" xmlns="http://www.w3.org/2000/svg">
<path fill-rule="evenodd" clip-rule="evenodd" d="M17.25 2.34381C17.6124 2.34381 17.9063 2.63762 17.9063 3.00006V7.50006C17.9063 7.86249 17.6124 8.15631 17.25 8.15631H12.75C12.3876 8.15631 12.0938 7.86249 12.0938 7.50006C12.0938 7.13762 12.3876 6.84381 12.75 6.84381H16.5938V3.00006C16.5938 2.63762 16.8876 2.34381 17.25 2.34381Z" fill="#333D4C"/>
<path fill-rule="evenodd" clip-rule="evenodd" d="M0.093752 10.5001C0.093752 10.1376 0.387565 9.84381 0.750002 9.84381H5.25C5.61244 9.84381 5.90625 10.1376 5.90625 10.5001C5.90625 10.8625 5.61244 11.1563 5.25 11.1563H1.40625V15.0001C1.40625 15.3625 1.11244 15.6563 0.750002 15.6563C0.387565 15.6563 0.093752 15.3625 0.093752 15.0001V10.5001Z" fill="#333D4C"/>
<path fill-rule="evenodd" clip-rule="evenodd" d="M10.689 3.14804C9.70021 2.86202 8.65503 2.83115 7.65104 3.05832C6.64705 3.28549 5.71696 3.76328 4.94757 4.44713C4.17818 5.13097 3.59455 5.99857 3.25116 6.96898C3.13025 7.31065 2.75525 7.48962 2.41358 7.36871C2.0719 7.24781 1.89294 6.87281 2.01384 6.53113C2.4312 5.35172 3.14053 4.29725 4.07563 3.46611C5.01074 2.63498 6.14115 2.05427 7.36139 1.77818C8.58163 1.50209 9.85192 1.5396 11.0537 1.88723C12.2522 2.23388 13.3436 2.87764 14.2267 3.75869L17.6994 7.02181C17.9635 7.27 17.9764 7.68531 17.7282 7.94944C17.4801 8.21357 17.0647 8.22649 16.8006 7.9783L13.3206 4.7083C13.3156 4.7036 13.3107 4.69883 13.3058 4.69398C12.5782 3.96592 11.6779 3.43407 10.689 3.14804ZM0.271758 10.0507C0.519946 9.78654 0.93526 9.77362 1.19939 10.0218L4.67939 13.2918C4.68438 13.2965 4.68931 13.3013 4.69416 13.3061C5.42185 14.0342 6.32212 14.566 7.31095 14.8521C8.29979 15.1381 9.34497 15.169 10.349 14.9418C11.353 14.7146 12.283 14.2368 13.0524 13.553C13.8218 12.8691 14.4054 12.0015 14.7488 11.0311C14.8698 10.6895 15.2447 10.5105 15.5864 10.6314C15.9281 10.7523 16.1071 11.1273 15.9862 11.469C15.5688 12.6484 14.8595 13.7029 13.9244 14.534C12.9893 15.3651 11.8588 15.9458 10.6386 16.2219C9.41837 16.498 8.14808 16.4605 6.94626 16.1129C5.74782 15.7662 4.65641 15.1225 3.77329 14.2414L0.300617 10.9783C0.0364904 10.7301 0.0235695 10.3148 0.271758 10.0507Z" fill="#333D4C"/>
</svg>
