<svg width="16" height="16" viewBox="0 0 16 16" fill="none" xmlns="http://www.w3.org/2000/svg">
<path fill-rule="evenodd" clip-rule="evenodd" d="M7.25 1.90625C4.29873 1.90625 1.90625 4.29873 1.90625 7.25C1.90625 10.2013 4.29873 12.5938 7.25 12.5938C10.2013 12.5938 12.5938 10.2013 12.5938 7.25C12.5938 4.29873 10.2013 1.90625 7.25 1.90625ZM0.59375 7.25C0.59375 3.57385 3.57385 0.59375 7.25 0.59375C10.9261 0.59375 13.9062 3.57385 13.9062 7.25C13.9062 10.9261 10.9261 13.9062 7.25 13.9062C3.57385 13.9062 0.59375 10.9261 0.59375 7.25Z" fill="white"/>
<path fill-rule="evenodd" clip-rule="evenodd" d="M11.0235 11.0235C11.2797 10.7672 11.6953 10.7672 11.9515 11.0235L15.214 14.286C15.4703 14.5422 15.4703 14.9578 15.214 15.214C14.9578 15.4703 14.5422 15.4703 14.286 15.214L11.0235 11.9515C10.7672 11.6953 10.7672 11.2797 11.0235 11.0235Z" fill="white"/>
</svg>
